<svg width="282" height="282" viewBox="0 0 282 282" fill="none" xmlns="http://www.w3.org/2000/svg">
<rect width="282" height="282" rx="25" fill="url(#paint0_linear_1_39)"/>
<g filter="url(#filter0_d_1_39)">
<path d="M97.9594 128.72C97.9594 151.6 112.679 168.4 135.079 168.4C146.439 168.4 156.199 163.76 161.159 156.4V169.52C161.159 182.64 152.519 191.12 139.079 191.12C127.079 191.12 119.239 185.04 117.959 174.8H98.4394C100.839 195.92 116.359 208.88 139.079 208.88C164.679 208.88 180.519 192.4 180.519 166V90.96H162.439L161.319 101.84C156.679 93.36 147.399 88.4 135.559 88.4C112.999 88.4 97.9594 105.68 97.9594 128.72ZM117.639 128.24C117.639 115.28 125.959 105.52 138.919 105.52C152.519 105.52 160.679 114.8 160.679 128.24C160.679 142 152.359 151.44 138.919 151.44C126.119 151.44 117.639 141.52 117.639 128.24Z" fill="white"/>
</g>
<defs>
<filter id="filter0_d_1_39" x="89.9594" y="80.4" width="106.56" height="144.48" filterUnits="userSpaceOnUse" color-interpolation-filters="sRGB">
<feFlood flood-opacity="0" result="BackgroundImageFix"/>
<feColorMatrix in="SourceAlpha" type="matrix" values="0 0 0 0 0 0 0 0 0 0 0 0 0 0 0 0 0 0 127 0" result="hardAlpha"/>
<feOffset dx="4" dy="4"/>
<feGaussianBlur stdDeviation="6"/>
<feComposite in2="hardAlpha" operator="out"/>
<feColorMatrix type="matrix" values="0 0 0 0 0 0 0 0 0 0 0 0 0 0 0 0 0 0 0.15 0"/>
<feBlend mode="normal" in2="BackgroundImageFix" result="effect1_dropShadow_1_39"/>
<feBlend mode="normal" in="SourceGraphic" in2="effect1_dropShadow_1_39" result="shape"/>
</filter>
<linearGradient id="paint0_linear_1_39" x1="-85" y1="-47" x2="399" y2="317" gradientUnits="userSpaceOnUse">
<stop offset="0.201411" stop-color="#258282"/>
<stop offset="0.986105" stop-color="#4BF7EC"/>
</linearGradient>
</defs>
</svg>
